<?xml version="1.0" encoding="utf-8"?>
<!-- Generator: Adobe Illustrator 20.1.0, SVG Export Plug-In . SVG Version: 6.00 Build 0)  -->
<svg version="1.1" id="Large_x5F_98mm" xmlns="http://www.w3.org/2000/svg" xmlns:xlink="http://www.w3.org/1999/xlink" x="0px"
	 y="0px" viewBox="0 0 329 69" style="enable-background:new 0 0 329 69;" xml:space="preserve">
<style type="text/css">
	.Arched_x0020_Green{fill:url(#SVGID_1_);stroke:#FFFFFF;stroke-width:0.25;stroke-miterlimit:1;}
	.st0{fill:#CB2026;}
</style>
<linearGradient id="SVGID_1_" gradientUnits="userSpaceOnUse" x1="-263" y1="336.2793" x2="-262.2929" y2="335.5722">
	<stop  offset="0" style="stop-color:#20AC4B"/>
	<stop  offset="0.9831" style="stop-color:#19361A"/>
</linearGradient>
<g>
	<g>
		<path class="st0" d="M144.1,34.4c0,5.2,4,9,9,9c5,0,9-4,9-9c0-5.4-3.9-9.1-9-9.1C148.1,25.4,144.1,29.4,144.1,34.4 M147.5,34.4
			c0-3.2,2.3-6.2,5.7-6.2c3.5,0,5.7,2.5,5.7,6.2c0,3.3-2.3,6.1-5.7,6.1C149.8,40.6,147.5,38,147.5,34.4z"/>
		<path class="st0" d="M124.4,34.4c0,5.3,3.8,9,9,9c2.9,0,5.3-1.2,6.9-3.4l0.1-0.1l-2.5-2.1l-0.1,0.2c-1,1.7-2.4,2.6-4.5,2.6
			c-3.4,0-5.7-2.7-5.7-6.2c0-3.5,2.5-6.2,5.7-6.2c1.9,0,3.6,1.1,4.5,2.5l0.1,0.1l2.5-2l-0.1-0.1c-1.7-2.1-4.3-3.3-7-3.3
			C128.5,25.4,124.4,29.2,124.4,34.4z"/>
		<polygon class="st0" points="251.2,35.8 251.2,43 254.4,43 254.4,35.8 260.7,25.8 257.2,25.8 252.8,32.7 248.6,25.8 244.9,25.8 		
			"/>
		<path class="st0" d="M192.7,25.8V43h3.3v-6.4c0.2,0,0.5,0.1,0.8,0.1c4.2,0,7.1-1.8,7.1-5.4c0-3.4-2.5-5.5-7.2-5.5H192.7z
			 M196,28.4h0.8c2.7,0,3.8,1,3.8,2.8c0,1.8-1.2,2.8-3.8,2.8c-0.4,0-0.6,0-0.8-0.1V28.4z"/>
		<polygon class="st0" points="170.9,33.7 176.3,43.5 181.6,33.7 183.7,43 187.1,43 182.6,25.5 176.4,37.1 170,25.5 165.7,43.1 
			168.9,43.1 		"/>
		<polygon class="st0" points="82.6,36 71.2,25.5 71.2,43.1 74.3,43.1 74.3,32.9 85.8,43.5 85.8,25.8 82.6,25.8 		"/>
		<path class="st0" d="M60.4,25.8V43c0,0,0.3,0,1.6,0s1.7,0,1.7,0V25.8H60.4z"/>
		<path class="st0" d="M56.2,43l-8.4-17.6L39.4,43h3.3l1.7-3.7H51l1.6,3.7H56.2z M45.6,36.6l2.2-5l2,5H45.6z"/>
		<path class="st0" d="M33.6,33.9c1.3-0.6,2.3-1.9,2.3-3.6c0-3-2.4-4.5-6.5-4.5h-4.1V43l4.9,0c4.4,0,6.8-1.8,6.8-5
			C37,36,35.6,34.5,33.6,33.9 M30,35.7c2.3,0,3.6,0.6,3.6,2.4c0,1.6-1.2,2.3-3.6,2.3h-1.4v-4.7H30z M28.6,33.1l0-4.7l0.6,0
			c2.4,0,3.6,0.6,3.6,2.4c0,1.8-1.2,2.3-3.5,2.3L28.6,33.1z"/>
		<path class="st0" d="M110.4,43.1h3.8c0,0-2.9-3.3-3.4-3.9c0.4-0.5,2.9-4.3,2.9-4.3l-3.1,0l-1.5,2.3l-2.7-3.1
			c2.3-1.2,3.7-2.9,3.7-4.7c0-2.4-2.1-4-4.8-4c-3,0-5,1.8-5,4.2c0,1.8,1.1,3.2,1.9,4.1c-1.8,1-3.4,2.5-3.4,5c0,2.7,2.2,4.8,5.4,4.8
			c1.9,0,3.5-0.7,4.8-2.1L110.4,43.1z M103.3,29.7c0-1.2,0.9-2,2-2c1.1,0,1.9,0.7,1.9,1.8c0,1.2-1.2,2.1-2.4,2.7
			C104.2,31.7,103.3,30.7,103.3,29.7z M107.2,39.5c-0.5,0.7-1.5,1.3-2.7,1.3c-1.6,0-2.6-1-2.6-2.4c0-1.2,0.9-2.3,1.8-2.8
			c0,0,0.1,0,0.1,0L107.2,39.5z"/>
		<polygon class="st0" points="237.8,36 226.4,25.5 226.4,43 229.6,43 229.6,32.9 241,43.5 241,25.8 237.8,25.8 		"/>
		<path class="st0" d="M222.2,43l-8.4-17.6L205.4,43h3.3l1.7-3.7h6.6l1.6,3.7H222.2z M211.6,36.6l2.2-5l2,5H211.6z"/>
	</g>
	<path class="st0" d="M294.4,35.2l-2.8-12.4l-7.7,10L294.4,35.2z M304.3,34.4c0,8.4-6.9,15.3-15.3,15.3c-8.5,0-15.3-6.8-15.3-15.3
		c0-8.4,6.9-15.3,15.3-15.3c0.8,0,1.6,0.1,2.4,0.2l-1.3,1.7c-0.4,0-0.7,0-1.1,0c-7.1,0-12.9,5.6-12.9,12.6c0,6.9,5.8,12.6,12.9,12.6
		c7.1,0,12.9-5.6,12.9-12.6c0-5.3-3.4-9.9-8.2-11.7l-0.5-2.1C299.6,21.6,304.3,27.4,304.3,34.4z"/>
</g>
</svg>
